<?xml version="1.0" standalone="no"?>
<!DOCTYPE svg PUBLIC "-//W3C//DTD SVG 20010904//EN"
 "http://www.w3.org/TR/2001/REC-SVG-20010904/DTD/svg10.dtd">
<svg version="1.0" xmlns="http://www.w3.org/2000/svg"
 width="700.000000pt" height="700.000000pt" viewBox="0 0 700.000000 700.000000"
 preserveAspectRatio="xMidYMid meet">
<metadata>
Created by potrace 1.14, written by Peter Selinger 2001-2017
</metadata>
<g transform="translate(0.000000,700.000000) scale(0.100000,-0.100000)"
fill="#000000" stroke="none">
<path d="M3280 6994 c-19 -2 -84 -9 -145 -14 -639 -62 -1264 -315 -1795 -726
-149 -115 -481 -446 -595 -594 -410 -532 -653 -1132 -727 -1795 -17 -155 -17
-575 0 -730 75 -673 332 -1300 748 -1820 114 -143 339 -372 484 -494 537 -451
1163 -717 1885 -803 142 -17 586 -17 730 0 682 79 1268 318 1802 734 138 107
389 351 512 498 451 538 717 1162 803 1885 16 139 16 595 0 730 -77 629 -275
1158 -620 1649 -234 333 -577 668 -917 896 -460 308 -968 495 -1535 566 -117
15 -552 27 -630 18z m1930 -1558 c0 -24 -529 -2637 -556 -2746 -80 -322 -201
-592 -359 -795 -300 -387 -814 -572 -1479 -535 -360 21 -648 107 -886 265 -84
56 -260 226 -308 297 l-32 46 360 344 c198 189 364 344 369 346 4 1 31 -29 60
-68 63 -85 168 -181 253 -233 180 -109 440 -125 617 -39 72 35 162 119 207
193 70 116 86 182 273 1132 100 503 181 917 181 921 0 3 -310 6 -690 6 -579 0
-690 2 -690 14 0 7 38 203 85 435 47 232 85 423 85 426 0 3 565 5 1255 5 1055
0 1255 -2 1255 -14z"/>
</g>
</svg>
